<svg xmlns="http://www.w3.org/2000/svg" xmlns:xlink="http://www.w3.org/1999/xlink" version="1.1" x="0px" y="0px" viewBox="0 0 100 125" enable-background="new 0 0 100 100" xml:space="preserve">
    <g>
        <g>
            <path d="M99,14.944c-7.746,6.932-48.926,5.878-48.926,5.878H49.43c0,0-41.182,1.054-48.93-5.878c0,0-0.136,4.346,4.621,6.386    c0,0-0.458,4.004,4.398,4.378c4.856,0.372,11.583,0.653,11.583,0.653s-0.188,1.4,1.026,1.774v2.896h-3.363v1.027H5.504v4.763    H21.57L18.673,76.33h-1.308l-0.279,8.498h9.527v-8.592h-1.028l2.053-39.416H49.43h0.644h21.792l2.053,39.416h-1.027v8.592h9.527    l-0.277-8.498H80.83l-2.896-39.509h16.063v-4.763h-13.26v-1.027h-3.359v-2.896c1.211-0.374,1.025-1.774,1.025-1.774    s6.725-0.281,11.584-0.653c4.854-0.374,4.393-4.378,4.393-4.378C99.137,19.29,99,14.944,99,14.944z M46.647,32.128H31.283v-1.027    h-3.2v-2.756c1.495,0,1.332-1.89,1.332-1.89h17.232V32.128z M71.42,31.101h-3.199v1.027H52.855v-5.673h17.232    c0,0-0.162,1.89,1.332,1.89V31.101z" />
        </g>
    </g>
</svg>
