<?xml version="1.0" encoding="iso-8859-1"?>
<!-- Generator: Adobe Illustrator 17.1.0, SVG Export Plug-In . SVG Version: 6.00 Build 0)  -->
<!DOCTYPE svg PUBLIC "-//W3C//DTD SVG 1.1//EN" "http://www.w3.org/Graphics/SVG/1.1/DTD/svg11.dtd">
<svg version="1.1" id="Capa_1" xmlns="http://www.w3.org/2000/svg" xmlns:xlink="http://www.w3.org/1999/xlink" x="0px" y="0px"
	 viewBox="0 0 465 465" style="enable-background:new 0 0 465 465;" xml:space="preserve">
<g>
	<path d="M306.249,221.156c-23.318,6.994-47.442,10.394-73.749,10.394s-50.431-3.4-73.75-10.394
		c-3.968-1.189-8.147,1.062-9.338,5.03c-1.19,3.967,1.062,8.148,5.029,9.338c24.737,7.419,50.271,11.025,78.059,11.025
		s53.321-3.606,78.058-11.025c3.968-1.19,6.22-5.371,5.029-9.339S310.21,219.967,306.249,221.156z"/>
	<path d="M457.5,138.059c-35.023,0-52.497-19.564-70.996-40.278c-4.825-5.403-9.814-10.989-15.123-16.216
		c-17.683-17.408-40.555-26.996-64.403-26.996c-17.252,0-34.025,4.883-48.507,14.122c-10.301,6.571-19.116,15.114-25.971,25.093
		c-6.854-9.98-15.67-18.522-25.971-25.093c-14.481-9.239-31.255-14.122-48.507-14.122c-23.849,0-46.721,9.587-64.403,26.996
		c-5.309,5.226-10.298,10.813-15.123,16.216C59.997,118.495,42.523,138.059,7.5,138.059c-4.143,0-7.5,3.358-7.5,7.5
		s3.357,7.5,7.5,7.5h61.491L110,243.549v108.202c-4.628,7.757-15,26.254-15,36.179c0,12.407,10.094,22.5,22.5,22.5
		s22.5-10.093,22.5-22.5c0-9.924-10.372-28.421-15-36.179V243.549l41.009-90.489h132.982l41.678,91.965
		c1.215,2.682,3.887,4.404,6.831,4.404s5.616-1.723,6.831-4.404l41.678-91.965H457.5c4.143,0,7.5-3.358,7.5-7.5
		S461.643,138.059,457.5,138.059z M117.5,395.43c-4.136,0-7.5-3.364-7.5-7.5c0-3.003,3.292-10.73,7.5-18.818
		c4.208,8.088,7.5,15.815,7.5,18.818C125,392.065,121.636,395.43,117.5,395.43z M117.5,223.76l-32.041-70.7h64.082L117.5,223.76z
		 M347.5,223.76l-32.041-70.7h64.082L347.5,223.76z M391.368,138.059c-0.001,0-0.002,0-0.003,0H161.368c-0.001,0-0.002,0-0.003,0
		H57.834c12.349-8.451,22.18-19.458,31.85-30.286c4.668-5.226,9.494-10.63,14.459-15.518c14.859-14.628,33.994-22.685,53.88-22.685
		c29.039,0,54.994,16.229,67.736,42.354c1.257,2.577,3.874,4.212,6.741,4.212s5.484-1.635,6.741-4.212
		c12.742-26.125,38.697-42.354,67.736-42.354c19.886,0,39.021,8.056,53.88,22.685c4.965,4.888,9.791,10.292,14.459,15.518
		c9.67,10.828,19.501,21.835,31.85,30.286H391.368z"/>
</g>
<g>
</g>
<g>
</g>
<g>
</g>
<g>
</g>
<g>
</g>
<g>
</g>
<g>
</g>
<g>
</g>
<g>
</g>
<g>
</g>
<g>
</g>
<g>
</g>
<g>
</g>
<g>
</g>
<g>
</g>
</svg>
